<svg width="200" height="200" viewBox="0 0 200 200" fill="none" xmlns="http://www.w3.org/2000/svg">
<path opacity="0.271654" d="M0 50H200V53.7056H0V50Z" fill="black"/>
<path opacity="0.271654" d="M0 73.8833H200V77.5889H0V73.8833Z" fill="black"/>
<path opacity="0.271654" d="M0 97.938H200V101.644H0V97.938Z" fill="black"/>
<path opacity="0.271654" d="M0 121.993H200V125.699H0V121.993Z" fill="black"/>
<path opacity="0.271654" d="M0 145.962H200V149.668H0V145.962Z" fill="black"/>
<path d="M111.151 50.0693V131.234" stroke="black" stroke-width="1.95334"/>
<path d="M111.493 128.655C112.605 131.208 112.312 134.36 110.675 137.465C109.037 140.571 106.178 143.397 102.681 145.368C99.1844 147.338 95.3128 148.303 91.8565 148.067C88.4002 147.831 85.6196 146.411 84.0821 144.097C82.5446 141.783 82.366 138.75 83.5827 135.615C84.7995 132.481 87.3199 129.482 90.6297 127.23C93.9396 124.978 97.7895 123.643 101.394 123.498C104.998 123.352 108.086 124.407 110.026 126.447" fill="black"/>
<path d="M175.151 50.0693V131.234" stroke="black" stroke-width="1.95334"/>
<path d="M175.493 128.655C176.605 131.208 176.312 134.36 174.675 137.465C173.037 140.571 170.178 143.397 166.681 145.368C163.184 147.338 159.313 148.303 155.856 148.067C152.4 147.831 149.62 146.411 148.082 144.097C146.545 141.783 146.366 138.75 147.583 135.615C148.799 132.481 151.32 129.482 154.63 127.23C157.94 124.978 161.789 123.643 165.394 123.498C168.998 123.352 172.086 124.407 174.026 126.447" fill="black"/>
<path d="M47.1506 50.0693V131.234" stroke="black" stroke-width="1.95334"/>
<path d="M47.4929 128.655C48.6048 131.208 48.3122 134.36 46.6747 137.465C45.0373 140.571 42.1784 143.397 38.6814 145.368C35.1844 147.338 31.3128 148.303 27.8565 148.067C24.4002 147.831 21.6196 146.411 20.0821 144.097C18.5446 141.783 18.366 138.75 19.5827 135.615C20.7995 132.481 23.3199 129.482 26.6297 127.23C29.9396 124.978 33.7895 123.643 37.3939 123.498C40.9983 123.352 44.0857 124.407 46.026 126.447" fill="black"/>
<rect x="46.1816" y="50.0693" width="128.969" height="13.3057" fill="black"/>
</svg>
