<svg width="200" height="200" viewBox="0 0 200 200" fill="none" xmlns="http://www.w3.org/2000/svg">
<g clip-path="url(#clip0)">
<path opacity="0.271654" d="M0 50H200V53.7056H0V50Z" fill="black"/>
<path opacity="0.271654" d="M0 73.8833H200V77.5889H0V73.8833Z" fill="black"/>
<path opacity="0.271654" d="M0 97.938H200V101.644H0V97.938Z" fill="black"/>
<path opacity="0.271654" d="M0 121.993H200V125.699H0V121.993Z" fill="black"/>
<path opacity="0.271654" d="M0 145.962H200V149.668H0V145.962Z" fill="black"/>
<path d="M101.983 84.9958C101.983 85.9143 101.803 86.8239 101.452 87.6726C101.101 88.5214 100.586 89.2926 99.9365 89.9423C99.2872 90.592 98.5163 91.1073 97.6678 91.459C96.8193 91.8106 95.9098 91.9916 94.9913 91.9916C94.0728 91.9916 93.1633 91.8106 92.3148 91.459C91.4663 91.1073 90.6954 90.592 90.0461 89.9423C89.3968 89.2926 88.882 88.5214 88.5309 87.6726C88.1798 86.8239 87.9994 85.9143 88 84.9958C87.9994 84.0773 88.1798 83.1677 88.5309 82.319C88.882 81.4702 89.3968 80.699 90.0461 80.0493C90.6954 79.3996 91.4663 78.8842 92.3148 78.5326C93.1633 78.181 94.0728 78 94.9913 78C95.9098 78 96.8193 78.181 97.6678 78.5326C98.5163 78.8842 99.2872 79.3996 99.9365 80.0493C100.586 80.699 101.101 81.4702 101.452 82.319C101.803 83.1677 101.983 84.0773 101.983 84.9958Z" fill="black" stroke="black" stroke-width="1.01745"/>
<path d="M100.566 121.466C100.566 120.486 112.257 80.0586 112.257 80.0586" stroke="black" stroke-width="3"/>
<path d="M94.5477 90.9526C100.017 91.327 110.267 89.943 112.117 80.4438C109.761 84.1574 109.677 91.3925 95.9807 88.2143" stroke="black" stroke-width="3"/>
</g>
<defs>
<clipPath id="clip0">
<rect width="200" height="200" fill="white"/>
</clipPath>
</defs>
</svg>
