<svg width="200" height="200" viewBox="0 0 200 200" fill="none" xmlns="http://www.w3.org/2000/svg">
<g clip-path="url(#clip0)">
<path opacity="0.271654" d="M0 50H200V53.7056H0V50Z" fill="black"/>
<path opacity="0.271654" d="M0 73.8833H200V77.5889H0V73.8833Z" fill="black"/>
<path opacity="0.271654" d="M0 97.938H200V101.644H0V97.938Z" fill="black"/>
<path opacity="0.271654" d="M0 121.993H200V125.699H0V121.993Z" fill="black"/>
<path opacity="0.271654" d="M0 145.962H200V149.668H0V145.962Z" fill="black"/>
<path fill-rule="evenodd" clip-rule="evenodd" d="M110.937 51.4902V126.021C108.743 122.889 99.8193 122.417 93.5625 125.865C86.1471 129.952 82.7649 137.616 86 142.99C89.2351 148.364 97.8658 149.421 105.281 145.334C109.733 142.88 112.7 139.129 113.687 135.365C114.14 133.296 113.876 132.223 113.844 130.771V78.1152C146.378 86.3567 131.363 114.926 128.436 125.018C155.164 88.5122 114.208 73.622 113.844 51.4902H110.937Z" fill="black"/>
</g>
<defs>
<clipPath id="clip0">
<rect width="200" height="200" fill="white"/>
</clipPath>
</defs>
</svg>
