<svg width="200" height="200" viewBox="0 0 200 200" fill="none" xmlns="http://www.w3.org/2000/svg">
<path opacity="0.271654" d="M0 50H200V53.7056H0V50Z" fill="black"/>
<path opacity="0.271654" d="M0 73.8833H200V77.5889H0V73.8833Z" fill="black"/>
<path opacity="0.271654" d="M0 97.938H200V101.644H0V97.938Z" fill="black"/>
<path opacity="0.271654" d="M0 121.993H200V125.699H0V121.993Z" fill="black"/>
<path opacity="0.271654" d="M0 145.962H200V149.668H0V145.962Z" fill="black"/>
<path d="M89.7234 110.314C84.2366 108.625 79.9073 104.036 79.9073 99.9084C79.9073 88.2256 105.001 83.6024 115.364 93.3759C126.57 103.945 108.282 116.026 89.7234 110.314V110.314ZM106.461 107.379C109.514 102.72 106.595 93.4881 101.307 91.0787C93.5415 87.5405 88.7815 93.57 92.0158 102.848C94.2529 109.265 103.354 112.12 106.461 107.379Z" fill="black"/>
</svg>
