<svg width="200" height="200" viewBox="0 0 200 200" fill="none" xmlns="http://www.w3.org/2000/svg">
<path opacity="0.271654" d="M0 50H200V53.7056H0V50Z" fill="black"/>
<path opacity="0.271654" d="M0 73.8833H200V77.5889H0V73.8833Z" fill="black"/>
<path opacity="0.271654" d="M0 97.938H200V101.644H0V97.938Z" fill="black"/>
<path opacity="0.271654" d="M0 121.993H200V125.699H0V121.993Z" fill="black"/>
<path opacity="0.271654" d="M0 145.962H200V149.668H0V145.962Z" fill="black"/>
<path d="M84.8467 140.407C84.8467 135.882 86.9965 131.879 91.2962 128.399C95.5958 124.832 100.148 123.048 104.954 123.048C107.736 123.048 110.223 123.787 112.415 125.267V50H115.197V132.445C115.197 137.318 113.132 141.364 109.001 144.583C104.87 147.803 100.317 149.412 95.3429 149.412C92.5608 149.412 90.1159 148.586 88.0082 146.933C85.9005 145.192 84.8467 143.017 84.8467 140.407ZM90.6639 144.322C95.1321 144.322 99.6426 142.364 104.195 138.449C108.832 134.533 111.15 131.618 111.15 129.704C111.15 128.486 110.645 127.877 109.633 127.877C106.514 127.877 102.214 129.748 96.734 133.489C91.3383 137.144 88.6405 140.189 88.6405 142.625C88.6405 143.757 89.3149 144.322 90.6639 144.322Z" fill="black"/>
</svg>
