<svg width="200" height="200" viewBox="0 0 200 200" fill="none" xmlns="http://www.w3.org/2000/svg">
<path opacity="0.271654" d="M0 50H200V53.7056H0V50Z" fill="black"/>
<path opacity="0.271654" d="M0 73.8833H200V77.5889H0V73.8833Z" fill="black"/>
<path opacity="0.271654" d="M0 97.938H200V101.644H0V97.938Z" fill="black"/>
<path opacity="0.271654" d="M0 121.993H200V125.699H0V121.993Z" fill="black"/>
<path opacity="0.271654" d="M0 145.962H200V149.668H0V145.962Z" fill="black"/>
<path d="M110.937 51.9473V126.01C109.063 123.467 101.179 121.812 94.3749 126.166C87.571 130.52 83.4864 137.8 85.8436 142.104C88.5344 147.015 97.4793 149.645 104.594 144.541C109.738 140.85 112.212 136.108 113 134.697V90.041C132.08 101.699 142.431 105.032 132.812 131.354C151.189 103.276 128.275 99.586 113 72.041V69.9473C138.867 83.0655 133.677 95.3387 136 102.072C142.434 75.1116 119.34 72.3855 113 53.2598V52.1035L110.937 51.9473Z" fill="black"/>
</svg>
