<svg width="200" height="200" viewBox="0 0 200 200" fill="none" xmlns="http://www.w3.org/2000/svg">
<path opacity="0.271654" d="M0 50H200V53.7056H0V50Z" fill="black"/>
<path opacity="0.271654" d="M0 73.8833H200V77.5889H0V73.8833Z" fill="black"/>
<path opacity="0.271654" d="M0 97.938H200V101.644H0V97.938Z" fill="black"/>
<path d="M97.9826 84.9894C97.9831 85.9079 97.8028 86.8175 97.4517 87.6663C97.1006 88.515 96.5857 89.2863 95.9365 89.9359C95.2872 90.5856 94.5163 91.101 93.6678 91.4526C92.8193 91.8043 91.9098 91.9852 90.9913 91.9852C90.0728 91.9852 89.1633 91.8043 88.3148 91.4526C87.4663 91.101 86.6954 90.5856 86.0461 89.9359C85.3968 89.2863 84.882 88.515 84.5309 87.6663C84.1798 86.8175 83.9994 85.9079 84 84.9894C83.9994 84.071 84.1798 83.1614 84.5309 82.3126C84.882 81.4639 85.3968 80.6926 86.0461 80.0429C86.6954 79.3933 87.4663 78.8779 88.3148 78.5263C89.1633 78.1746 90.0728 77.9937 90.9913 77.9937C91.9098 77.9937 92.8193 78.1746 93.6678 78.5263C94.5163 78.8779 95.2872 79.3933 95.9365 80.0429C96.5857 80.6926 97.1006 81.4639 97.4517 82.3126C97.8028 83.1614 97.9831 84.071 97.9826 84.9894V84.9894Z" fill="black" stroke="black" stroke-width="1.01745"/>
<path d="M96.5659 121.46C96.5659 120.48 108.257 80.0527 108.257 80.0527" stroke="black" stroke-width="3"/>
<path d="M90.5476 90.9462C96.0168 91.3206 106.267 89.9367 108.116 80.4375C105.761 84.151 105.677 91.3861 91.9806 88.2079" stroke="black" stroke-width="3"/>
<path d="M104.742 60.9913C104.742 64.8525 101.611 67.9826 97.7503 67.9826C93.8891 67.9826 90.759 64.8525 90.759 60.9913C90.759 57.1301 93.8891 54 97.7503 54C101.611 54 104.742 57.1301 104.742 60.9913Z" fill="black" stroke="black" stroke-width="1.01745"/>
<path d="M108.194 80.3982C108.194 79.4182 115.016 56.0542 115.016 56.0542" stroke="black" stroke-width="3"/>
<path d="M97.3066 66.9477C102.776 67.3221 113.026 65.9381 114.875 56.439C112.52 60.1525 112.436 67.3876 98.7396 64.2094" stroke="black" stroke-width="3"/>
<path opacity="0.271654" d="M0 121.993H200V125.699H0V121.993Z" fill="black"/>
<path opacity="0.271654" d="M0 145.962H200V149.668H0V145.962Z" fill="black"/>
</svg>
