<svg width="200" height="200" viewBox="0 0 200 200" fill="none" xmlns="http://www.w3.org/2000/svg">
<path opacity="0.271654" d="M0 50H200V53.7056H0V50Z" fill="black"/>
<path opacity="0.271654" d="M0 73.8833H200V77.5889H0V73.8833Z" fill="black"/>
<path opacity="0.271654" d="M0 97.938H200V101.644H0V97.938Z" fill="black"/>
<path opacity="0.271654" d="M0 121.993H200V125.699H0V121.993Z" fill="black"/>
<path opacity="0.271654" d="M0 145.962H200V149.668H0V145.962Z" fill="black"/>
<path d="M95.2919 61.6719L110.707 82.7422C96.2169 99.2598 105.01 106.064 108.598 115.61L91.9022 91.3072C101.554 79.8956 97.6893 71.0994 94.2475 62.2393C94.2455 62.2348 95.29 61.6778 95.2919 61.6719Z" fill="black" stroke="black" stroke-width="1.64604"/>
<path d="M107.273 112.898C89.503 96.9783 82.6807 117.728 100.19 132.638C97.9366 128.772 91.4335 109.78 108.143 115.567" fill="black"/>
<path d="M107.273 112.898C89.503 96.9783 82.6807 117.728 100.19 132.638C97.9366 128.772 91.4335 109.78 108.143 115.567" stroke="black" stroke-width="1.09736"/>
</svg>
