<svg width="200" height="200" viewBox="0 0 200 200" fill="none" xmlns="http://www.w3.org/2000/svg">
<path opacity="0.271654" d="M0 50H200V53.7056H0V50Z" fill="black"/>
<path opacity="0.271654" d="M0 73.8833H200V77.5889H0V73.8833Z" fill="black"/>
<path opacity="0.271654" d="M0 97.938H200V101.644H0V97.938Z" fill="black"/>
<path opacity="0.271654" d="M0 121.993H200V125.699H0V121.993Z" fill="black"/>
<path opacity="0.271654" d="M0 145.962H200V149.668H0V145.962Z" fill="black"/>
<path d="M111.151 48.0942V131.234" stroke="black" stroke-width="1.95334"/>
<path d="M111.493 128.655C112.605 131.208 112.312 134.36 110.675 137.465C109.037 140.571 106.178 143.397 102.681 145.368C99.1843 147.338 95.3127 148.303 91.8564 148.067C88.4 147.831 85.6195 146.411 84.082 144.097C82.5444 141.783 82.3658 138.75 83.5826 135.615C84.7994 132.481 87.3198 129.482 90.6296 127.23C93.9395 124.978 97.7894 123.643 101.394 123.498C104.998 123.352 108.086 124.407 110.026 126.447" fill="black"/>
</svg>
