<?xml version="1.0" standalone="no"?>
<!DOCTYPE svg PUBLIC "-//W3C//DTD SVG 20010904//EN"
 "http://www.w3.org/TR/2001/REC-SVG-20010904/DTD/svg10.dtd">
<svg version="1.0" xmlns="http://www.w3.org/2000/svg"
 width="700.000000pt" height="700.000000pt" viewBox="0 0 700.000000 700.000000"
 preserveAspectRatio="xMidYMid meet">
<metadata>
Created by potrace 1.14, written by Peter Selinger 2001-2017
</metadata>
<g transform="translate(0.000000,700.000000) scale(0.100000,-0.100000)"
fill="#000000" stroke="none">
<path d="M5200 5929 c-106 -22 -92 -19 -290 -59 -80 -16 -156 -31 -170 -34
-14 -2 -36 -7 -50 -10 -14 -3 -36 -8 -50 -10 -14 -3 -113 -22 -220 -44 -107
-22 -211 -43 -230 -46 -19 -3 -91 -17 -160 -31 -69 -15 -138 -29 -155 -31 -16
-3 -46 -9 -65 -14 -19 -5 -51 -12 -70 -15 -19 -3 -114 -22 -210 -41 -96 -20
-186 -38 -200 -40 -25 -4 -56 -10 -95 -19 -31 -6 -527 -106 -555 -111 -14 -3
-90 -18 -170 -34 -80 -16 -156 -31 -170 -34 -97 -17 -173 -37 -206 -54 -49
-26 -105 -84 -135 -142 l-24 -45 -3 -1434 c-1 -789 -3 -1436 -5 -1437 -1 -1
-38 4 -82 13 -86 15 -283 20 -380 9 -248 -29 -468 -127 -610 -272 -101 -102
-148 -211 -147 -339 2 -197 148 -380 394 -494 79 -37 207 -78 273 -88 17 -2
41 -7 55 -10 14 -3 90 -6 170 -8 269 -6 486 52 682 181 121 81 215 203 248
324 10 35 13 345 13 1326 l0 1281 86 18 c47 9 100 19 116 22 17 2 68 13 115
23 47 10 101 22 120 25 19 3 54 10 78 16 23 5 59 12 80 15 20 3 64 12 97 19
33 8 76 17 95 20 19 3 202 40 405 81 204 41 381 76 395 79 14 3 36 7 50 10 14
3 36 7 50 10 14 3 36 7 50 10 14 3 34 7 45 9 11 2 160 32 330 66 171 35 316
63 324 64 12 1 14 -137 13 -884 0 -487 -1 -892 -1 -901 -1 -14 -9 -14 -78 -1
-87 16 -306 21 -398 9 -250 -33 -459 -127 -596 -268 -109 -112 -150 -211 -146
-352 3 -83 7 -100 40 -167 105 -216 353 -363 702 -417 22 -4 99 -6 170 -6 169
0 233 8 370 48 263 77 457 232 527 423 l21 57 1 1738 c1 1389 -1 1749 -11
1789 -26 99 -107 184 -205 213 -66 19 -110 18 -228 -6z"/>
</g>
</svg>
