<svg width="256" height="256" viewBox="0 0 256 256" fill="none" xmlns="http://www.w3.org/2000/svg">
  <path
    d="M128.128 158.048V158.048C119.795 166.378 106.288 166.375 97.9584 158.042C89.6288 149.709 89.6316 136.202 97.9645 127.872C106.295 119.545 119.798 119.545 128.128 127.872H128.128C136.461 136.202 136.464 149.709 128.134 158.042C128.132 158.044 128.13 158.046 128.128 158.048H128.128Z"
    stroke="white" stroke-width="15" stroke-linecap="round" stroke-linejoin="round" />
  <path d="M37.6534 188.267L67.7335 218.347" stroke="white" stroke-width="15" stroke-linecap="round"
    stroke-linejoin="round" />
  <path
    d="M229.611 14.7949L229.611 14.7949C225.446 10.6309 218.694 10.6309 214.529 14.7949L182.07 47.2537V47.2537C180.6 48.7276 180.6 51.1132 182.07 52.5871V52.5871C183.54 54.0609 183.54 56.4466 182.07 57.9204L147.936 92.0539V92.0539C144.648 95.3368 139.613 96.1134 135.488 93.9739H135.488C115.963 81.9894 90.4186 88.1029 78.4342 107.629C76.8521 110.206 75.5566 112.949 74.5709 115.809V115.809C73.0309 120.577 68.3796 123.63 63.3922 123.147C5.17338 117.505 -10.944 184.95 30.0375 225.942C71.2216 267.137 138.4 250.476 132.832 192.577V192.577C132.355 187.593 135.407 182.948 140.171 181.409V181.409C161.818 173.979 173.344 150.408 165.915 128.761C164.924 125.873 163.616 123.103 162.017 120.502V120.502C159.872 116.375 160.649 111.333 163.937 108.043L198.07 73.9098V73.9098C199.544 72.4397 201.93 72.4397 203.403 73.9098V73.9098C204.877 75.3799 207.263 75.3799 208.737 73.9098L241.195 41.451V41.451C245.36 37.2857 245.36 30.5337 241.195 26.3683L229.611 14.7949Z"
    stroke="white" stroke-width="15" stroke-linecap="round" stroke-linejoin="round" />
  <path d="M200.747 7.25342L211.414 17.9201" stroke="white" stroke-width="15" stroke-linecap="round"
    stroke-linejoin="round" />
  <path d="M184.747 23.2534L195.414 33.9201" stroke="white" stroke-width="15" stroke-linecap="round"
    stroke-linejoin="round" />
  <path d="M248.748 55.2536L238.081 44.5869" stroke="white" stroke-width="15" stroke-linecap="round"
    stroke-linejoin="round" />
  <path d="M232.747 71.2536L222.081 60.5869" stroke="white" stroke-width="15" stroke-linecap="round"
    stroke-linejoin="round" />
</svg>