<svg width="256" height="256" viewBox="0 0 256 256" fill="none" xmlns="http://www.w3.org/2000/svg">
<path d="M250.667 154.176C250.667 148.285 245.892 143.51 240.001 143.51H69.3335V143.51C63.4424 143.51 58.6668 148.285 58.6668 154.176V175.51H16H16C10.1089 175.51 5.33325 180.286 5.33325 186.177V186.177V207.51V207.51C5.33325 213.401 10.1089 218.177 16 218.177H240.001V218.177C245.892 218.177 250.667 213.401 250.667 207.51V154.176Z" stroke="white" stroke-width="10.6667" stroke-linecap="round" stroke-linejoin="round"/>
<path d="M229.334 218.134V250.134" stroke="white" stroke-width="10.6667" stroke-linecap="round" stroke-linejoin="round"/>
<path d="M48 218.134V250.134" stroke="white" stroke-width="10.6667" stroke-linecap="round" stroke-linejoin="round"/>
<path d="M69.3335 143.51L114.507 13.0132V13.0132C116.352 7.6793 122.033 4.70571 127.467 6.22922V6.22922C143.561 10.7679 154.674 25.4544 154.667 42.176V42.176C154.667 56.9036 166.606 68.8427 181.334 68.8427V68.8427C213.735 68.8427 240.001 95.1087 240.001 127.51V143.51" stroke="white" stroke-width="10.6667" stroke-linecap="round" stroke-linejoin="round"/>
<path d="M122.667 84.8003L160 143.467" stroke="white" stroke-width="10.6667" stroke-linecap="round" stroke-linejoin="round"/>
</svg>
